<svg version="1.1" id="Layer_1" xmlns="http://www.w3.org/2000/svg" xmlns:xlink="http://www.w3.org/1999/xlink" x="0px" y="0px"
	 width="100%" viewBox="0 0 340 268" enable-background="new 0 0 340 268" xml:space="preserve">
<path fill="#FFFFFF" opacity="1.000000" stroke="none" 
	d="
M203.000000,269.000000 
	C135.360947,269.000000 68.221901,269.000000 1.041424,269.000000 
	C1.041424,179.731033 1.041424,90.462036 1.041424,1.096518 
	C114.222321,1.096518 227.444748,1.096518 340.833588,1.096518 
	C340.833588,90.333084 340.833588,179.666519 340.833588,269.000000 
	C295.128815,269.000000 249.314407,269.000000 203.000000,269.000000 
M231.834412,231.967529 
	C233.885269,231.664978 235.936127,231.362427 238.866791,231.142212 
	C240.904327,231.072845 242.941864,231.003464 245.511246,231.592041 
	C256.121521,231.592041 266.731781,231.592041 277.342072,231.592041 
	C277.329926,230.971603 277.317810,230.351181 277.305695,229.730743 
	C269.549805,229.730743 261.793915,229.730743 254.548218,229.190735 
	C257.179352,224.002655 259.810486,218.814560 262.405334,213.698029 
	C260.020752,212.395187 258.595825,211.616638 257.109070,210.140579 
	C252.930908,206.925507 249.717514,203.139313 250.087738,197.449860 
	C250.280533,194.487091 250.759323,191.544144 251.036545,188.585464 
	C252.083923,177.406891 253.101639,166.225555 254.867264,155.040054 
	C265.063782,152.243912 270.106537,144.370438 273.788330,134.168198 
	C274.616943,135.934265 274.880829,136.483597 275.133820,137.037888 
	C279.664551,146.964661 289.207367,151.988815 298.354523,149.347656 
	C307.406982,146.733841 314.868774,139.035950 312.996735,126.131935 
	C312.526184,122.888329 311.359528,121.055443 307.786987,123.056091 
	C306.945038,123.527603 305.927582,123.685692 305.000366,124.000244 
	C305.000366,124.000244 305.012878,124.010162 305.046539,123.285271 
	C306.588104,119.779396 310.405273,115.983704 304.274597,113.208282 
	C299.475739,111.035789 294.615601,108.780029 289.075104,110.940216 
	C286.799194,111.827568 284.378662,112.344048 282.000549,113.001419 
	C282.000549,113.001419 281.972870,112.978104 281.991058,112.198540 
	C282.380402,110.758736 282.856781,109.335991 283.142792,107.875946 
	C283.995453,103.522980 286.076508,101.490799 291.003601,101.783661 
	C293.907074,101.956238 297.192688,100.480118 299.862000,98.963379 
	C310.040924,93.179626 312.604370,79.227615 305.118561,71.228012 
	C303.355408,72.107178 301.563293,73.000778 299.042694,74.257637 
	C300.234161,71.101570 301.067657,68.893745 301.832062,66.868919 
	C292.954895,59.625484 276.967529,62.389225 271.934082,73.335670 
	C268.242676,81.363449 269.822906,90.785316 277.190491,97.775108 
	C278.328033,98.854324 279.455383,101.090179 279.104218,102.390602 
	C277.721863,107.509682 275.912292,112.534767 273.942139,117.467285 
	C272.249207,121.705750 270.121765,125.770668 268.005310,129.239365 
	C266.663605,127.162041 265.321869,125.084709 263.897095,122.314964 
	C259.463531,113.918282 252.772644,108.836517 242.475937,107.895241 
	C241.984558,106.936180 241.493195,105.977112 241.243332,104.363579 
	C241.934082,102.409340 242.624847,100.455101 243.748932,98.007591 
	C245.487900,93.592110 242.858231,90.660973 239.519577,89.349052 
	C236.840790,88.296425 233.001266,88.241081 230.414734,89.395912 
	C227.032333,90.906075 225.974182,94.472649 227.901871,98.948074 
	C229.238388,101.303841 230.574921,103.659607 231.960907,106.699814 
	C231.922470,107.608017 231.884033,108.516220 231.099213,109.659309 
	C224.300400,112.376060 216.939529,114.139915 211.822662,120.995865 
	C207.509857,123.365753 203.197052,125.735641 198.040894,128.025711 
	C195.367462,127.674149 192.694016,127.322594 189.612976,126.448784 
	C184.680603,121.736359 179.794418,116.974342 174.802795,112.325523 
	C169.864227,107.726112 163.100510,107.004112 158.502853,111.084152 
	C152.425354,116.477432 146.754486,122.328926 140.054535,127.953743 
	C138.348282,128.027481 136.642014,128.101227 134.351212,127.757736 
	C132.620850,121.685593 129.080551,117.397354 122.564354,116.377563 
	C117.349861,115.561485 113.115021,117.578438 109.856331,121.617889 
	C105.339607,127.216774 105.213997,138.029785 116.746597,144.005554 
	C116.827148,146.322647 116.907700,148.639740 116.326355,151.115234 
	C111.944725,155.187729 107.699684,159.422012 103.134071,163.276566 
	C100.021393,165.904465 98.993340,168.978287 99.019470,172.902328 
	C99.125908,188.889572 98.884842,204.881592 99.212685,220.862793 
	C99.274826,223.891815 101.342064,226.879715 101.480446,229.942062 
	C88.659531,229.958374 75.838608,229.974686 62.659748,229.405197 
	C60.798927,227.938263 58.938103,226.471329 57.218990,224.350372 
	C60.554119,220.418915 64.032501,216.598801 67.193626,212.532089 
	C73.208374,204.794235 79.041801,196.915436 84.950516,189.095169 
	C84.456848,188.466629 83.963188,187.838074 83.469521,187.209534 
	C78.799828,189.464432 73.610855,191.036285 69.565201,194.112030 
	C60.255623,201.189621 56.559479,211.439651 55.156395,223.163330 
	C55.102997,223.512741 55.049599,223.862152 54.331688,223.937576 
	C50.140514,216.086655 45.949345,208.235733 41.758175,200.384811 
	C41.508831,200.505798 41.259487,200.626785 41.010143,200.747787 
	C41.010143,202.891159 41.010143,205.034546 40.361931,206.927460 
	C37.995907,203.991714 35.629887,201.055969 32.648106,197.356186 
	C33.352726,212.171936 39.545597,221.809631 50.247742,225.869873 
	C50.729988,225.988327 51.212234,226.106781 51.444855,226.827835 
	C51.348923,227.886002 51.252987,228.944168 50.484486,230.083572 
	C50.200672,230.525208 49.916859,230.966858 49.633049,231.408508 
	C50.815090,231.490814 51.997135,231.573105 53.968624,231.738586 
	C56.920738,231.718185 59.872856,231.697769 63.763718,231.883209 
	C76.121178,231.921600 88.478691,231.982880 100.836021,231.957321 
	C101.886803,231.955154 102.936386,231.373535 104.923996,231.121155 
	C145.626617,231.125214 186.329254,231.129272 227.482635,231.675766 
	C228.655945,231.756027 229.829269,231.836273 231.834412,231.967529 
z"/>
<path fill="#15565E" opacity="1.000000" stroke="none" 
	d="
M227.031860,231.133331 
	C186.329254,231.129272 145.626617,231.125214 104.398254,230.829620 
	C103.409714,230.320923 102.946922,230.103760 102.484131,229.886581 
	C101.342064,226.879715 99.274826,223.891815 99.212685,220.862793 
	C98.884842,204.881592 99.125908,188.889572 99.019470,172.902328 
	C98.993340,168.978287 100.021393,165.904465 103.134071,163.276566 
	C107.699684,159.422012 111.944725,155.187729 116.637787,151.507141 
	C116.955757,158.550476 116.801849,165.208694 117.083321,171.848450 
	C117.152451,173.478928 118.234680,175.871536 119.542664,176.520950 
	C133.967804,183.682724 148.500122,190.632584 163.100479,197.431366 
	C164.543396,198.103271 166.882278,197.938446 168.377029,197.242355 
	C182.221939,190.794678 195.951447,184.099747 209.766098,177.586166 
	C213.142242,175.994339 214.973633,173.659622 214.963394,169.881241 
	C214.946274,163.562729 214.994171,157.244049 215.326950,151.051971 
	C218.634659,153.855606 221.630127,156.532684 224.761505,159.499207 
	C225.596313,160.214828 226.295227,160.640976 226.966125,161.529007 
	C226.583267,173.426910 228.028183,184.576538 232.226608,195.736267 
	C232.177902,204.472794 232.432205,212.776642 231.946732,221.037003 
	C231.769363,224.054779 229.834488,226.969269 228.417252,229.948975 
	C227.766006,230.355835 227.398941,230.744583 227.031860,231.133331 
z"/>
<path fill="#4C8680" opacity="1.000000" stroke="none" 
	d="
M215.014709,150.925430 
	C214.994171,157.244049 214.946274,163.562729 214.963394,169.881241 
	C214.973633,173.659622 213.142242,175.994339 209.766098,177.586166 
	C195.951447,184.099747 182.221939,190.794678 168.377029,197.242355 
	C166.882278,197.938446 164.543396,198.103271 163.100479,197.431366 
	C148.500122,190.632584 133.967804,183.682724 119.542664,176.520950 
	C118.234680,175.871536 117.152451,173.478928 117.083321,171.848450 
	C116.801849,165.208694 116.955757,158.550476 116.968727,151.427948 
	C116.907700,148.639740 116.827148,146.322647 117.107910,143.637299 
	C118.645805,143.179535 119.822403,143.090042 121.330597,143.001099 
	C122.103745,142.980179 122.545288,142.958694 123.361198,142.958282 
	C124.846092,142.334137 125.956619,141.688950 127.317940,140.937012 
	C128.052032,140.591461 128.535339,140.352646 129.336182,140.376205 
	C136.279297,140.752686 142.905899,140.960373 149.529327,140.885406 
	C150.587189,140.873459 151.630737,139.594513 152.680893,138.901306 
	C151.578049,138.255875 150.498138,137.102264 149.368454,137.051239 
	C143.902710,136.804413 138.423599,136.853912 133.123962,136.482208 
	C133.844391,133.502380 134.390076,130.838669 134.935760,128.174973 
	C136.642014,128.101227 138.348282,128.027481 140.956604,127.962120 
	C156.383484,127.981102 170.908432,128.022446 185.432922,127.957001 
	C186.963593,127.950111 188.491425,127.314796 190.020584,126.971039 
	C192.694016,127.322594 195.367462,127.674149 198.498627,128.486542 
	C199.851120,131.967651 200.604111,135.044052 201.758606,137.961548 
	C201.993530,138.555222 203.784058,138.841370 204.770065,138.692062 
	C205.222488,138.623566 205.969223,136.945587 205.722534,136.359344 
	C203.080109,130.079742 208.095016,130.209335 211.889130,129.389404 
	C213.015152,132.033005 214.435486,134.333496 214.674728,136.750885 
	C215.138931,141.441010 214.939285,146.196823 215.014709,150.925430 
M201.999619,160.928177 
	C202.625229,160.623993 203.250854,160.319809 205.028717,159.455383 
	C176.597427,159.455383 149.518173,159.455383 122.438919,159.455383 
	C122.439346,159.954773 122.439781,160.454147 122.440216,160.953537 
	C148.658218,160.953537 174.876236,160.953537 201.999619,160.928177 
M124.961426,168.133133 
	C151.193726,168.133133 177.426010,168.133133 203.658310,168.133133 
	C203.686432,167.574295 203.714554,167.015442 203.742661,166.456604 
	C202.401566,166.311325 201.060577,166.040741 199.719330,166.039368 
	C175.608902,166.014832 151.498459,166.019760 127.388023,166.033508 
	C126.235184,166.034164 125.082420,166.174820 123.929626,166.250290 
	C123.976501,166.837158 124.023376,167.424026 124.961426,168.133133 
M189.493134,151.021027 
	C167.443970,151.021027 145.394791,151.021027 123.345627,151.021027 
	C123.354401,151.520996 123.363182,152.020966 123.371956,152.520935 
	C150.139557,152.520935 176.907150,152.520935 203.674759,152.520935 
	C203.679077,152.020935 203.683395,151.520935 203.687714,151.020935 
	C199.287872,151.020935 194.888046,151.020935 189.493134,151.021027 
z"/>
<path fill="#DBDBDA" opacity="1.000000" stroke="none" 
	d="
M282.023926,113.029236 
	C284.378662,112.344048 286.799194,111.827568 289.075104,110.940216 
	C294.615601,108.780029 299.475739,111.035789 304.274597,113.208282 
	C310.405273,115.983704 306.588104,119.779396 304.883972,123.690842 
	C304.811218,124.060265 304.901031,124.024109 304.990845,123.987961 
	C305.927582,123.685692 306.945038,123.527603 307.786987,123.056091 
	C311.359528,121.055443 312.526184,122.888329 312.996735,126.131935 
	C314.868774,139.035950 307.406982,146.733841 298.354523,149.347656 
	C289.207367,151.988815 279.664551,146.964661 275.133820,137.037888 
	C274.880829,136.483597 274.616943,135.934265 273.788330,134.168198 
	C270.106537,144.370438 265.063782,152.243912 254.393295,154.728638 
	C253.870941,153.978714 253.822556,153.540222 254.139221,153.040604 
	C255.451797,152.337250 256.646484,151.883713 257.305115,151.020950 
	C260.591370,146.716232 264.067078,142.497009 266.786041,137.844421 
	C268.056671,135.670151 267.768250,132.584763 268.186432,129.912323 
	C270.121765,125.770668 272.249207,121.705750 273.942139,117.467285 
	C275.912292,112.534767 277.721863,107.509682 279.104218,102.390602 
	C279.455383,101.090179 278.328033,98.854324 277.190491,97.775108 
	C269.822906,90.785316 268.242676,81.363449 271.934082,73.335670 
	C276.967529,62.389225 292.954895,59.625484 301.832062,66.868919 
	C301.067657,68.893745 300.234161,71.101570 299.042694,74.257637 
	C301.563293,73.000778 303.355408,72.107178 305.118561,71.228012 
	C312.604370,79.227615 310.040924,93.179626 299.862000,98.963379 
	C297.192688,100.480118 293.907074,101.956238 291.003601,101.783661 
	C286.076508,101.490799 283.995453,103.522980 283.142792,107.875946 
	C282.856781,109.335991 282.380402,110.758736 281.831238,112.648331 
	C281.788940,113.075157 281.906433,113.052193 282.023926,113.029236 
z"/>
<path fill="#19575E" opacity="1.000000" stroke="none" 
	d="
M212.400970,120.688568 
	C216.939529,114.139915 224.300400,112.376060 231.494247,109.938889 
	C233.655197,111.675316 236.362488,114.701385 237.018402,114.307899 
	C239.412888,112.871460 241.122986,110.294189 243.090958,108.146767 
	C252.772644,108.836517 259.463531,113.918282 263.677002,122.849640 
	C262.255859,124.912178 261.054779,126.440041 259.475800,127.938828 
	C257.104004,127.137459 255.110092,126.365166 252.395020,125.313545 
	C252.738998,128.433914 252.934189,130.204590 253.011215,132.417511 
	C252.623138,137.245956 252.353226,141.632126 252.012817,146.390366 
	C251.550980,148.470093 251.159637,150.177734 250.339783,151.896698 
	C242.531784,153.016190 235.152298,154.124374 227.380646,155.147720 
	C226.447357,153.519699 225.312454,151.915207 225.464340,150.443542 
	C226.267487,142.662338 227.125534,134.938995 223.201477,127.235596 
	C220.491043,126.779694 217.874008,126.707527 215.172989,126.285263 
	C214.193008,124.186302 213.296997,122.437439 212.400970,120.688568 
z"/>
<path fill="#618463" opacity="1.000000" stroke="none" 
	d="
M227.772812,155.232544 
	C235.152298,154.124374 242.531784,153.016190 250.581985,152.137390 
	C252.093185,152.611740 252.933685,152.856735 253.774170,153.101730 
	C253.822556,153.540222 253.870941,153.978714 254.024902,154.731232 
	C253.101639,166.225555 252.083923,177.406891 251.036545,188.585464 
	C250.759323,191.544144 250.280533,194.487091 250.087738,197.449860 
	C249.717514,203.139313 252.930908,206.925507 256.787659,210.569336 
	C253.980042,212.990570 251.493805,214.983063 248.708893,216.895142 
	C247.792511,216.359436 247.174789,215.904129 246.684708,215.542908 
	C245.732285,217.163437 244.894669,218.588623 243.679535,220.061783 
	C241.001938,218.808380 238.760284,217.946060 236.684875,220.733261 
	C236.602341,216.107162 236.156662,211.496307 237.303696,207.323257 
	C238.892197,201.544098 236.322723,198.280869 232.236694,195.286377 
	C228.028183,184.576538 226.583267,173.426910 226.974640,161.175507 
	C226.959579,159.893372 226.907990,159.426636 226.929276,158.635803 
	C226.964844,157.872208 226.927505,157.432693 227.117249,156.860580 
	C227.487152,156.229507 227.629974,155.731033 227.772812,155.232544 
z"/>
<path fill="#18585D" opacity="1.000000" stroke="none" 
	d="
M189.816772,126.709915 
	C188.491425,127.314796 186.963593,127.950111 185.432922,127.957001 
	C170.908432,128.022446 156.383484,127.981102 141.383759,127.976982 
	C146.754486,122.328926 152.425354,116.477432 158.502853,111.084152 
	C163.100510,107.004112 169.864227,107.726112 174.802795,112.325523 
	C179.794418,116.974342 184.680603,121.736359 189.816772,126.709915 
z"/>
<path fill="#4D4F61" opacity="1.000000" stroke="none" 
	d="
M55.548485,222.797791 
	C56.559479,211.439651 60.255623,201.189621 69.565201,194.112030 
	C73.610855,191.036285 78.799828,189.464432 83.469521,187.209534 
	C83.963188,187.838074 84.456848,188.466629 84.950516,189.095169 
	C79.041801,196.915436 73.208374,204.794235 67.193626,212.532089 
	C64.032501,216.598801 60.554119,220.418915 56.835342,224.519745 
	C56.150627,224.058670 55.849556,223.428223 55.548485,222.797791 
z"/>
<path fill="#159B7F" opacity="1.000000" stroke="none" 
	d="
M134.643494,127.966354 
	C134.390076,130.838669 133.844391,133.502380 132.798981,136.539978 
	C131.861343,136.885406 131.423401,136.856934 131.158157,136.509827 
	C133.850723,132.201736 133.474136,128.481720 130.201141,124.666885 
	C128.836075,124.356232 127.039894,123.877922 126.378227,124.537590 
	C123.580757,127.326569 121.120903,130.454193 118.539894,133.455368 
	C117.056458,132.159698 116.619362,131.636856 116.064438,131.320999 
	C114.667290,130.525726 113.216980,129.823837 111.787979,129.084518 
	C112.497444,130.512512 113.206810,131.940567 113.916504,133.368439 
	C113.990189,133.516708 114.065811,133.664032 113.767365,133.864380 
	C112.368782,134.153076 111.343384,134.389191 110.317978,134.625320 
	C110.128410,135.118057 109.938835,135.610809 109.749260,136.103546 
	C113.499176,138.402542 117.249084,140.701523 120.998993,143.000519 
	C119.822403,143.090042 118.645805,143.179535 117.140976,143.204681 
	C105.213997,138.029785 105.339607,127.216774 109.856331,121.617889 
	C113.115021,117.578438 117.349861,115.561485 122.564354,116.377563 
	C129.080551,117.397354 132.620850,121.685593 134.643494,127.966354 
z"/>
<path fill="#BB959A" opacity="1.000000" stroke="none" 
	d="
M254.139221,153.040604 
	C252.933685,152.856735 252.093185,152.611740 251.010498,152.126068 
	C251.159637,150.177734 251.550980,148.470093 252.349487,146.359116 
	C254.503235,144.651886 256.249817,143.347977 258.254272,141.813644 
	C263.205597,134.936981 263.497223,131.977600 259.853699,127.967911 
	C261.054779,126.440041 262.255859,124.912178 263.718567,123.195847 
	C265.321869,125.084709 266.663605,127.162041 268.095886,129.575836 
	C267.768250,132.584763 268.056671,135.670151 266.786041,137.844421 
	C264.067078,142.497009 260.591370,146.716232 257.305115,151.020950 
	C256.646484,151.883713 255.451797,152.337250 254.139221,153.040604 
z"/>
<path fill="#292834" opacity="1.000000" stroke="none" 
	d="
M249.007553,216.975555 
	C251.493805,214.983063 253.980042,212.990570 256.818573,210.918091 
	C258.595825,211.616638 260.020752,212.395187 262.405334,213.698029 
	C259.810486,218.814560 257.179352,224.002655 254.030045,229.456604 
	C252.758179,229.381317 252.004501,229.040161 251.266968,228.271881 
	C250.524597,224.221680 249.766068,220.598618 249.007553,216.975555 
z"/>
<path fill="#4B4E5E" opacity="1.000000" stroke="none" 
	d="
M49.965034,225.460938 
	C39.545597,221.809631 33.352726,212.171936 32.648106,197.356186 
	C35.629887,201.055969 37.995907,203.991714 40.699875,207.417877 
	C44.013561,213.759171 46.989300,219.610062 49.965034,225.460938 
z"/>
<path fill="#275B60" opacity="1.000000" stroke="none" 
	d="
M227.886627,98.219131 
	C225.974182,94.472649 227.032333,90.906075 230.414734,89.395912 
	C233.001266,88.241081 236.840790,88.296425 239.519577,89.349052 
	C242.858231,90.660973 245.487900,93.592110 243.102127,98.122269 
	C237.599091,98.231003 232.742859,98.225067 227.886627,98.219131 
z"/>
<path fill="#B39297" opacity="1.000000" stroke="none" 
	d="
M212.111816,120.842224 
	C213.296997,122.437439 214.193008,124.186302 214.829437,126.440247 
	C213.596512,127.663239 212.623154,128.381165 211.649796,129.099091 
	C208.095016,130.209335 203.080109,130.079742 205.722534,136.359344 
	C205.969223,136.945587 205.222488,138.623566 204.770065,138.692062 
	C203.784058,138.841370 201.993530,138.555222 201.758606,137.961548 
	C200.604111,135.044052 199.851120,131.967651 198.920288,128.526459 
	C203.197052,125.735641 207.509857,123.365753 212.111816,120.842224 
z"/>
<path fill="#5A8783" opacity="1.000000" stroke="none" 
	d="
M50.106388,225.665405 
	C46.989300,219.610062 44.013561,213.759171 41.023983,207.543121 
	C41.010143,205.034546 41.010143,202.891159 41.010143,200.747787 
	C41.259487,200.626785 41.508831,200.505798 41.758175,200.384811 
	C45.949345,208.235733 50.140514,216.086655 54.540390,224.406555 
	C53.730888,225.325439 52.712688,225.775330 51.694485,226.225220 
	C51.212234,226.106781 50.729988,225.988327 50.106388,225.665405 
z"/>
<path fill="#BA9096" opacity="1.000000" stroke="none" 
	d="
M227.894257,98.583603 
	C232.742859,98.225067 237.599091,98.231003 242.885468,98.368896 
	C242.624847,100.455101 241.934082,102.409340 240.793396,104.850647 
	C237.532791,105.563599 234.722107,105.789490 231.911438,106.015373 
	C230.574921,103.659607 229.238388,101.303841 227.894257,98.583603 
z"/>
<path fill="#252631" opacity="1.000000" stroke="none" 
	d="
M237.032074,220.943771 
	C238.760284,217.946060 241.001938,218.808380 243.617035,220.495178 
	C244.328506,223.909622 244.724945,226.938660 245.021667,230.199875 
	C244.941116,230.599396 244.960251,230.766754 244.979401,230.934082 
	C242.941864,231.003464 240.904327,231.072845 238.378906,230.848831 
	C237.624512,230.361771 237.357986,230.168076 237.030441,229.599060 
	C236.990295,226.463745 237.011185,223.703751 237.032074,220.943771 
z"/>
<path fill="#C5D3D7" opacity="1.000000" stroke="none" 
	d="
M101.982285,229.914322 
	C102.946922,230.103760 103.409714,230.320923 103.929520,230.799606 
	C102.936386,231.373535 101.886803,231.955154 100.836021,231.957321 
	C88.478691,231.982880 76.121178,231.921600 63.339924,231.503021 
	C62.949986,230.745575 62.983841,230.368286 63.017693,229.990997 
	C75.838608,229.974686 88.659531,229.958374 101.982285,229.914322 
z"/>
<path fill="#A4848B" opacity="1.000000" stroke="none" 
	d="
M231.936172,106.357597 
	C234.722107,105.789490 237.532791,105.563599 240.672638,105.177872 
	C241.493195,105.977112 241.984558,106.936180 242.783447,108.021004 
	C241.122986,110.294189 239.412888,112.871460 237.018402,114.307899 
	C236.362488,114.701385 233.655197,111.675316 231.867447,109.821442 
	C231.884033,108.516220 231.922470,107.608017 231.936172,106.357597 
z"/>
<path fill="#A5AAAB" opacity="1.000000" stroke="none" 
	d="
M62.838722,229.698105 
	C62.983841,230.368286 62.949986,230.745575 62.870552,231.400101 
	C59.872856,231.697769 56.920738,231.718185 53.475464,231.431656 
	C52.373886,230.750595 51.765465,230.376465 51.157047,230.002350 
	C51.252987,228.944168 51.348923,227.886002 51.569672,226.526520 
	C52.712688,225.775330 53.730888,225.325439 54.872643,224.543549 
	C55.049599,223.862152 55.102997,223.512741 55.352440,222.980560 
	C55.849556,223.428223 56.150627,224.058670 56.764488,224.846741 
	C58.938103,226.471329 60.798927,227.938263 62.838722,229.698105 
z"/>
<path fill="#CBCFD1" opacity="1.000000" stroke="none" 
	d="
M245.245331,231.263062 
	C244.960251,230.766754 244.941116,230.599396 245.439240,230.218506 
	C247.721283,229.569641 249.486038,229.134323 251.250809,228.699005 
	C252.004501,229.040161 252.758179,229.381317 253.774933,229.726608 
	C261.793915,229.730743 269.549805,229.730743 277.305695,229.730743 
	C277.317810,230.351181 277.329926,230.971603 277.342072,231.592041 
	C266.731781,231.592041 256.121521,231.592041 245.245331,231.263062 
z"/>
<path fill="#CBCFD1" opacity="1.000000" stroke="none" 
	d="
M237.091461,229.974380 
	C237.357986,230.168076 237.624512,230.361771 237.939011,230.807663 
	C235.936127,231.362427 233.885269,231.664978 231.418060,231.644318 
	C231.003723,230.922592 231.005707,230.524063 231.440781,230.092285 
	C233.613068,230.030807 235.352264,230.002594 237.091461,229.974380 
z"/>
<path fill="#C5D3D7" opacity="1.000000" stroke="none" 
	d="
M50.820763,230.042969 
	C51.765465,230.376465 52.373886,230.750595 53.080742,231.390060 
	C51.997135,231.573105 50.815090,231.490814 49.633049,231.408508 
	C49.916859,230.966858 50.200672,230.525208 50.820763,230.042969 
z"/>
<path fill="#C5D3D7" opacity="1.000000" stroke="none" 
	d="
M231.007690,230.125549 
	C231.005707,230.524063 231.003723,230.922592 231.002151,231.618820 
	C229.829269,231.836273 228.655945,231.756027 227.257248,231.404541 
	C227.398941,230.744583 227.766006,230.355835 228.802704,229.968018 
	C229.984100,230.021149 230.495911,230.073349 231.007690,230.125549 
z"/>
<path fill="#E5F0EE" opacity="1.000000" stroke="none" 
	d="
M231.440796,230.092285 
	C230.495911,230.073349 229.984100,230.021149 229.086853,229.949921 
	C229.834488,226.969269 231.769363,224.054779 231.946732,221.037003 
	C232.432205,212.776642 232.177902,204.472794 232.226608,195.736267 
	C236.322723,198.280869 238.892197,201.544098 237.303696,207.323257 
	C236.156662,211.496307 236.602341,216.107162 236.684860,220.733261 
	C237.011185,223.703751 236.990295,226.463745 237.030441,229.599060 
	C235.352264,230.002594 233.613068,230.030807 231.440796,230.092285 
z"/>
<path fill="#F0F6F7" opacity="1.000000" stroke="none" 
	d="
M211.889130,129.389389 
	C212.623154,128.381165 213.596512,127.663239 214.913422,126.790344 
	C217.874008,126.707527 220.491043,126.779694 223.009521,127.563187 
	C218.396942,133.118118 217.431473,138.973526 218.005463,145.293701 
	C218.439133,150.068634 222.947617,156.057343 226.890167,156.993164 
	C226.927505,157.432693 226.964844,157.872208 226.555237,158.653748 
	C225.614075,159.067093 225.119843,159.138428 224.625595,159.209747 
	C221.630127,156.532684 218.634659,153.855606 215.326935,151.051971 
	C214.939285,146.196823 215.138931,141.441010 214.674728,136.750885 
	C214.435486,134.333496 213.015152,132.033005 211.889130,129.389389 
z"/>
<path fill="#D4D9D9" opacity="1.000000" stroke="none" 
	d="
M224.761505,159.499207 
	C225.119843,159.138428 225.614075,159.067093 226.482361,158.977814 
	C226.907990,159.426636 226.959579,159.893372 227.002655,160.713623 
	C226.295227,160.640976 225.596313,160.214828 224.761505,159.499207 
z"/>
<path fill="#059B7D" opacity="1.000000" stroke="none" 
	d="
M121.330597,143.001099 
	C117.249084,140.701523 113.499176,138.402542 109.749260,136.103546 
	C109.938835,135.610809 110.128410,135.118057 110.317978,134.625320 
	C111.343384,134.389191 112.368782,134.153076 113.760643,133.882858 
	C114.127098,133.848755 114.092072,133.842010 114.170990,134.099579 
	C114.542976,134.547760 114.836044,134.738388 115.086548,134.942688 
	C115.043991,134.956375 115.071350,134.871246 115.160294,135.122955 
	C115.542709,135.559433 115.836174,135.744217 116.088058,135.942352 
	C116.046478,135.955704 116.067116,135.870834 116.167908,136.129395 
	C116.580696,136.568298 116.892693,136.748642 117.407013,136.932480 
	C117.609344,136.935974 117.999283,137.044296 118.121506,137.203491 
	C118.457550,137.136353 118.671364,136.910004 119.054169,136.407455 
	C122.912735,132.428406 126.602310,128.725555 130.291885,125.022697 
	C133.474136,128.481720 133.850723,132.201736 130.870819,136.681824 
	C129.946732,138.152908 129.482681,139.133377 129.018631,140.113846 
	C128.535339,140.352646 128.052032,140.591461 126.937103,140.921631 
	C125.199249,141.654404 124.093040,142.295792 122.986824,142.937195 
	C122.545288,142.958694 122.103745,142.980179 121.330597,143.001099 
z"/>
<path fill="#C1D3D2" opacity="1.000000" stroke="none" 
	d="
M201.546936,160.940857 
	C174.876236,160.953537 148.658218,160.953537 122.440216,160.953537 
	C122.439781,160.454147 122.439346,159.954773 122.438919,159.455383 
	C149.518173,159.455383 176.597427,159.455383 205.028717,159.455383 
	C203.250854,160.319809 202.625229,160.623993 201.546936,160.940857 
z"/>
<path fill="#BFDCDA" opacity="1.000000" stroke="none" 
	d="
M124.515839,168.072021 
	C124.023376,167.424026 123.976501,166.837158 123.929626,166.250290 
	C125.082420,166.174820 126.235184,166.034164 127.388023,166.033508 
	C151.498459,166.019760 175.608902,166.014832 199.719330,166.039368 
	C201.060577,166.040741 202.401566,166.311325 203.742661,166.456604 
	C203.714554,167.015442 203.686432,167.574295 203.658310,168.133133 
	C177.426010,168.133133 151.193726,168.133133 124.515839,168.072021 
z"/>
<path fill="#C9D8D9" opacity="1.000000" stroke="none" 
	d="
M189.990662,151.020981 
	C194.888046,151.020935 199.287872,151.020935 203.687714,151.020935 
	C203.683395,151.520935 203.679077,152.020935 203.674759,152.520935 
	C176.907150,152.520935 150.139557,152.520935 123.371956,152.520935 
	C123.363182,152.020966 123.354401,151.520996 123.345627,151.021027 
	C145.394791,151.021027 167.443970,151.021027 189.990662,151.020981 
z"/>
<path fill="#C6D9D8" opacity="1.000000" stroke="none" 
	d="
M129.336182,140.376205 
	C129.482681,139.133377 129.946732,138.152908 130.698120,137.000458 
	C131.423401,136.856934 131.861343,136.885406 132.624237,136.856110 
	C138.423599,136.853912 143.902710,136.804413 149.368454,137.051239 
	C150.498138,137.102264 151.578049,138.255875 152.680893,138.901306 
	C151.630737,139.594513 150.587189,140.873459 149.529327,140.885406 
	C142.905899,140.960373 136.279297,140.752686 129.336182,140.376205 
z"/>
<path fill="#159B7F" opacity="1.000000" stroke="none" 
	d="
M123.361198,142.958267 
	C124.093040,142.295792 125.199249,141.654404 126.686302,141.028381 
	C125.956619,141.688950 124.846092,142.334137 123.361198,142.958267 
z"/>
<path fill="#FFFFFF" opacity="1.000000" stroke="none" 
	d="
M282.012238,113.015327 
	C281.906433,113.052193 281.788940,113.075157 281.822144,113.038116 
	C281.972870,112.978104 282.000549,113.001419 282.012238,113.015327 
z"/>
<path fill="#FFFFFF" opacity="1.000000" stroke="none" 
	d="
M304.995605,123.994095 
	C304.901031,124.024109 304.811218,124.060265 304.867126,124.053291 
	C305.012878,124.010162 305.000366,124.000244 304.995605,123.994095 
z"/>
<path fill="#D4D9D9" opacity="1.000000" stroke="none" 
	d="
M227.117249,156.860580 
	C222.947617,156.057343 218.439133,150.068634 218.005463,145.293701 
	C217.431473,138.973526 218.396942,133.118118 223.102905,127.946930 
	C227.125534,134.938995 226.267487,142.662338 225.464340,150.443542 
	C225.312454,151.915207 226.447357,153.519699 227.380646,155.147720 
	C227.629974,155.731033 227.487152,156.229507 227.117249,156.860580 
z"/>
<path fill="#F7F7F7" opacity="1.000000" stroke="none" 
	d="
M259.475800,127.938828 
	C263.497223,131.977600 263.205597,134.936981 257.968597,141.577454 
	C255.993179,138.372849 254.561279,135.174042 253.129364,131.975250 
	C252.934189,130.204590 252.738998,128.433914 252.395020,125.313545 
	C255.110092,126.365166 257.104004,127.137459 259.475800,127.938828 
z"/>
<path fill="#D6D8DD" opacity="1.000000" stroke="none" 
	d="
M253.011200,132.417511 
	C254.561279,135.174042 255.993179,138.372849 257.710754,141.807861 
	C256.249817,143.347977 254.503235,144.651886 252.419983,145.987045 
	C252.353226,141.632126 252.623138,137.245956 253.011200,132.417511 
z"/>
<path fill="#F5F7F6" opacity="1.000000" stroke="none" 
	d="
M251.266968,228.271881 
	C249.486038,229.134323 247.721283,229.569641 245.538940,229.986328 
	C244.724945,226.938660 244.328506,223.909622 243.994568,220.447174 
	C244.894669,218.588623 245.732285,217.163437 246.684708,215.542908 
	C247.174789,215.904129 247.792511,216.359436 248.708893,216.895142 
	C249.766068,220.598618 250.524597,224.221680 251.266968,228.271881 
z"/>
<path fill="#C4F0EA" opacity="1.000000" stroke="none" 
	d="
M130.201141,124.666885 
	C126.602310,128.725555 122.912735,132.428406 118.820297,136.467255 
	C118.417427,136.803253 117.999283,137.044296 117.999283,137.044296 
	C117.999283,137.044296 117.609344,136.935974 117.296432,136.680954 
	C116.678062,136.240891 116.372589,136.055862 116.067116,135.870834 
	C116.067116,135.870834 116.046478,135.955704 116.003281,135.688171 
	C115.663834,135.237503 115.367592,135.054382 115.071350,134.871246 
	C115.071350,134.871246 115.043991,134.956375 115.000534,134.687988 
	C114.668747,134.227066 114.380409,134.034546 114.092072,133.842010 
	C114.092072,133.842010 114.127098,133.848755 114.133820,133.830261 
	C114.065811,133.664032 113.990189,133.516708 113.916504,133.368439 
	C113.206810,131.940567 112.497444,130.512512 111.787979,129.084518 
	C113.216980,129.823837 114.667290,130.525726 116.064438,131.320999 
	C116.619362,131.636856 117.056458,132.159698 118.539894,133.455368 
	C121.120903,130.454193 123.580757,127.326569 126.378227,124.537590 
	C127.039894,123.877922 128.836075,124.356232 130.201141,124.666885 
z"/>
<path fill="#159B7F" opacity="1.000000" stroke="none" 
	d="
M116.167908,136.129395 
	C116.372589,136.055862 116.678062,136.240891 117.094109,136.677460 
	C116.892693,136.748642 116.580696,136.568298 116.167908,136.129395 
z"/>
<path fill="#159B7F" opacity="1.000000" stroke="none" 
	d="
M114.170990,134.099579 
	C114.380409,134.034546 114.668747,134.227066 115.043098,134.674301 
	C114.836044,134.738388 114.542976,134.547760 114.170990,134.099579 
z"/>
<path fill="#159B7F" opacity="1.000000" stroke="none" 
	d="
M115.160294,135.122955 
	C115.367592,135.054382 115.663834,135.237503 116.044861,135.674805 
	C115.836174,135.744217 115.542709,135.559433 115.160294,135.122955 
z"/>
<path fill="#159B7F" opacity="1.000000" stroke="none" 
	d="
M118.121506,137.203491 
	C117.999283,137.044296 118.417427,136.803253 118.651306,136.743454 
	C118.671364,136.910004 118.457550,137.136353 118.121506,137.203491 
z"/>
</svg>