<?xml version="1.0" standalone="no"?>
<!DOCTYPE svg PUBLIC "-//W3C//DTD SVG 20010904//EN"
 "http://www.w3.org/TR/2001/REC-SVG-20010904/DTD/svg10.dtd">
<svg version="1.0" xmlns="http://www.w3.org/2000/svg"
 width="902.000000pt" height="670.000000pt" viewBox="0 0 902.000000 670.000000"
 preserveAspectRatio="xMidYMid meet">

<g transform="translate(0.000000,670.000000) scale(0.100000,-0.100000)"
fill="#000000" stroke="none">
<path d="M5565 5805 c-93 -20 -109 -29 -286 -146 l-166 -110 -64 16 c-94 25
-245 17 -319 -17 -105 -49 -106 -46 8 -119 87 -55 105 -72 136 -123 19 -33 33
-62 31 -66 -3 -4 -35 -26 -72 -49 -38 -22 -74 -45 -81 -49 -13 -9 -6 -42 8
-42 5 0 46 22 92 49 94 56 84 59 147 -42 l42 -68 -7 -111 -7 -110 34 17 c61
31 178 126 213 173 43 59 60 120 47 167 l-9 34 166 102 c92 56 184 118 206
138 85 80 153 224 144 311 -3 34 -5 35 -58 47 -72 15 -132 14 -205 -2z m-50
-177 c15 -12 34 -37 42 -55 30 -74 -50 -164 -132 -149 -44 9 -95 66 -95 107 0
37 23 83 52 103 33 23 100 20 133 -6z"/>
<path d="M4695 5064 c-9 -15 -12 -23 -6 -20 11 7 35 46 28 46 -3 0 -12 -12
-22 -26z"/>
<path d="M4620 4930 c-6 -11 -8 -20 -6 -20 3 0 10 9 16 20 6 11 8 20 6 20 -3
0 -10 -9 -16 -20z"/>
<path d="M4582 4790 c0 -14 2 -19 5 -12 2 6 2 18 0 25 -3 6 -5 1 -5 -13z"/>
<path d="M6113 4793 c295 -2 779 -2 1075 0 295 1 53 2 -538 2 -591 0 -833 -1
-537 -2z"/>
<path d="M5780 4205 l0 -295 28 0 c27 0 26 0 -11 -23 -20 -12 -51 -39 -68 -60
-41 -50 -74 -66 -141 -66 -88 0 -139 -35 -176 -121 -11 -25 -23 -72 -26 -105
-11 -102 -30 -132 -107 -170 -139 -70 -161 -152 -78 -283 20 -32 21 -35 5 -75
-20 -53 -20 -70 0 -108 19 -38 73 -62 118 -53 44 8 70 -7 102 -57 48 -76 118
-98 194 -59 46 23 66 24 100 5 21 -11 22 -15 8 -20 -12 -5 -18 -25 -22 -78
-14 -152 -10 -143 -82 -167 -101 -34 -187 -107 -289 -245 -57 -78 -171 -282
-224 -403 -38 -86 -59 -122 -71 -122 -9 0 -90 -7 -181 -15 -112 -11 -167 -20
-175 -30 -7 -10 -26 39 -73 198 -35 117 -68 217 -75 224 -8 8 -55 9 -181 3
-364 -19 -815 -40 -857 -40 -47 0 -47 -6 -7 -101 17 -41 31 -82 32 -91 1 -10
4 -18 8 -18 4 0 9 -10 12 -22 3 -13 26 -76 50 -141 l45 -117 -33 -25 c-18 -14
-50 -51 -72 -83 -95 -136 -106 -288 -31 -436 40 -80 103 -138 239 -220 63 -37
193 -116 291 -175 130 -78 174 -109 166 -118 -5 -7 -7 -16 -4 -22 13 -20 -40
-25 -284 -26 -236 0 -259 -2 -312 -22 -126 -47 -171 -115 -137 -211 8 -23 24
-38 64 -57 102 -50 295 -51 555 -1 69 13 157 29 195 36 39 7 119 27 179 46 59
18 113 31 120 27 6 -4 31 -23 56 -43 43 -35 118 -72 205 -101 25 -9 84 -13
160 -13 190 1 320 41 352 110 12 25 21 33 32 28 163 -70 295 -82 435 -39 275
84 426 302 426 612 0 63 5 145 11 183 11 66 13 69 53 87 96 43 180 138 206
233 5 19 23 125 40 234 34 220 32 211 86 416 32 124 38 161 38 255 1 125 -13
166 -79 223 -58 52 -75 59 -306 122 -36 10 -37 12 -48 78 -19 111 -22 120 -38
126 -24 10 -362 -30 -425 -50 -15 -5 -18 1 -18 40 0 43 -2 46 -42 64 -50 22
-111 86 -133 138 -26 63 -38 208 -30 374 4 101 11 157 18 162 7 4 38 8 70 8
72 0 92 10 117 60 24 47 43 54 105 40 26 -6 56 -8 66 -5 11 3 27 7 38 10 14 4
20 -1 25 -20 4 -16 27 -39 61 -62 73 -48 77 -68 31 -142 -20 -33 -36 -71 -36
-86 0 -15 14 -56 31 -92 37 -74 35 -86 -30 -156 -22 -24 -45 -56 -51 -71 -25
-67 -1 -134 59 -162 32 -15 38 -15 94 0 91 26 155 61 225 124 72 65 84 94 69
181 -9 51 -8 57 33 136 30 59 42 94 42 124 l-1 41 40 0 39 0 0 135 0 135 -134
0 -135 0 -3 -27 c-4 -38 -29 -40 -50 -4 -22 39 -72 64 -128 65 -45 0 -46 1
-42 28 7 45 -7 80 -44 115 l-35 33 170 0 171 0 0 295 0 295 -295 0 -295 0 0
-295z m300 -1539 c0 -2 -7 -6 -15 -10 -8 -3 -15 -1 -15 4 0 6 7 10 15 10 8 0
15 -2 15 -4z m-50 -16 c-8 -5 -24 -10 -35 -10 -17 0 -17 2 -5 10 8 5 24 10 35
10 17 0 17 -2 5 -10z m-164 -81 c15 -26 -6 -15 -37 18 l-34 36 32 -22 c18 -12
35 -27 39 -32z m273 -206 c1 -13 -3 -23 -9 -23 -5 0 -10 21 -9 48 1 38 2 42 9
22 4 -14 8 -35 9 -47z m275 -13 c-37 -67 -42 -57 -7 14 15 31 29 52 31 47 2
-6 -9 -33 -24 -61z m-479 41 c-57 -51 -97 -82 -85 -66 20 28 73 75 85 75 6 0
6 -3 0 -9z m-253 -74 c20 -38 0 -25 -32 21 -31 44 -32 45 -6 22 15 -14 32 -33
38 -43z m872 -82 c6 -40 6 -40 -13 10 -23 58 -26 91 -6 55 7 -14 16 -43 19
-65z m-509 -41 c4 -24 2 -22 -14 11 -11 22 -19 49 -19 60 0 25 24 -28 33 -71z
m-691 11 c-10 -8 -23 -14 -29 -14 -5 -1 1 8 15 19 14 10 27 17 29 14 3 -2 -4
-11 -15 -19z m165 -40 c-34 -47 -71 -85 -54 -55 12 23 76 100 81 100 3 0 -9
-20 -27 -45z m315 -95 c3 -14 -5 -2 -19 25 -14 28 -24 57 -24 65 1 17 34 -52
43 -90z m526 85 c0 -8 -118 -65 -132 -64 -7 0 18 16 57 35 74 36 75 37 75 29z
m-722 -215 c0 -19 -3 -16 -13 15 -8 22 -13 51 -13 65 0 19 3 16 13 -15 8 -22
13 -51 13 -65z m927 85 c-36 -16 -113 -31 -103 -21 7 9 96 34 118 34 8 0 1 -6
-15 -13z m-266 -68 c-2 -94 -17 -110 -18 -19 -1 53 3 81 9 77 6 -3 10 -30 9
-58z m-914 1 c8 -21 13 -38 10 -38 -5 0 -45 76 -45 87 0 14 19 -13 35 -49z
m-186 -47 c-12 -29 -24 -49 -27 -46 -3 3 5 28 18 55 30 65 38 57 9 -9z m866
19 c-3 -5 -30 -9 -58 -8 l-52 1 45 7 c69 11 72 11 65 0z m-139 -137 c19 -29
30 -53 26 -53 -11 0 -68 90 -76 120 -6 23 -6 23 5 5 7 -11 27 -44 45 -72z
m248 -68 l38 -50 -46 48 c-25 27 -46 54 -46 60 0 13 3 9 54 -58z m-2024 31
c15 -19 9 -56 -11 -69 -9 -5 -28 -7 -42 -3 -31 7 -46 48 -27 71 16 19 64 19
80 1z m1240 -1 c0 -8 -102 -57 -107 -51 -3 2 17 16 44 30 48 25 63 30 63 21z
m346 -42 c-18 -35 -45 -70 -46 -60 0 8 51 87 57 87 2 0 -3 -12 -11 -27z m-589
-35 c-2 -13 -4 -5 -4 17 -1 22 1 32 4 23 2 -10 2 -28 0 -40z m1373 22 c-27
-15 -120 -50 -120 -44 0 7 102 53 120 53 13 0 13 -1 0 -9z m-960 -103 c18 -56
5 -57 -14 -1 -18 54 -19 62 -7 49 5 -6 14 -27 21 -48z m-543 -55 l83 -52 137
-1 c76 0 155 -3 176 -7 l39 -7 -99 -77 c-114 -90 -81 -84 -372 -62 -153 11
-209 19 -217 30 -12 16 -59 182 -53 188 2 2 37 22 78 44 l74 40 36 -22 c20
-13 73 -46 118 -74z m371 28 c6 -24 9 -46 7 -49 -6 -5 -20 34 -30 79 -11 51
10 25 23 -30z m-305 -35 c9 -18 9 -19 -7 -6 -9 8 -27 28 -38 45 l-22 31 28
-25 c15 -14 33 -34 39 -45z m1117 -81 c-13 -51 -18 -63 -15 -34 6 49 26 122
32 117 2 -2 -6 -40 -17 -83z m229 -2 c-1 -83 -18 -95 -18 -14 -1 46 3 71 9 67
6 -3 10 -27 9 -53z m-1790 -584 c13 -10 18 -18 10 -18 -8 1 -32 17 -54 36 -32
29 -34 32 -10 18 17 -10 41 -26 54 -36z m581 -413 c0 -9 -6 -12 -15 -9 -8 4
-12 10 -9 15 8 14 24 10 24 -6z"/>
<path d="M6923 4223 c37 -2 97 -2 135 0 37 2 6 3 -68 3 -74 0 -105 -1 -67 -3z"/>
<path d="M4756 4207 c3 -10 9 -15 12 -12 3 3 0 11 -7 18 -10 9 -11 8 -5 -6z"/>
<path d="M4826 4077 c3 -10 9 -15 12 -12 3 3 0 11 -7 18 -10 9 -11 8 -5 -6z"/>
<path d="M1660 3775 l0 -235 240 0 240 0 0 235 0 235 -240 0 -240 0 0 -235z"/>
<path d="M4123 3963 c9 -2 23 -2 30 0 6 3 -1 5 -18 5 -16 0 -22 -2 -12 -5z"/>
<path d="M3984 3924 c-18 -14 -18 -15 4 -4 12 6 22 13 22 15 0 8 -5 6 -26 -11z"/>
<path d="M4410 3876 c0 -2 8 -10 18 -17 15 -13 16 -12 3 4 -13 16 -21 21 -21
13z"/>
<path d="M4510 3750 c6 -11 13 -20 16 -20 2 0 0 9 -6 20 -6 11 -13 20 -16 20
-2 0 0 -9 6 -20z"/>
<path d="M3801 3694 c0 -11 3 -14 6 -6 3 7 2 16 -1 19 -3 4 -6 -2 -5 -13z"/>
<path d="M6830 3565 l0 -135 140 0 140 0 0 135 0 135 -140 0 -140 0 0 -135z"/>
<path d="M7340 3565 l0 -135 135 0 c113 0 135 2 135 15 1 8 1 68 1 133 l0 117
-135 3 -136 3 0 -136z"/>
<path d="M4562 3600 c0 -14 2 -19 5 -12 2 6 2 18 0 25 -3 6 -5 1 -5 -13z"/>
<path d="M5620 3475 c-11 -13 -5 -15 41 -15 50 1 52 2 35 15 -25 19 -60 19
-76 0z"/>
<path d="M4561 3454 c0 -11 3 -14 6 -6 3 7 2 16 -1 19 -3 4 -6 -2 -5 -13z"/>
<path d="M5880 3430 c-13 -8 -13 -9 0 -14 30 -9 120 -13 120 -4 0 22 -91 37
-120 18z"/>
<path d="M5606 3392 c-3 -5 17 -8 44 -8 27 0 47 3 44 8 -3 4 -23 8 -44 8 -21
0 -41 -4 -44 -8z"/>
<path d="M5897 3388 c-15 -11 -9 -13 38 -13 47 0 53 2 38 13 -9 6 -26 12 -38
12 -12 0 -29 -6 -38 -12z"/>
<path d="M5764 3343 c-27 -64 -64 -165 -64 -174 0 -5 5 -9 12 -9 6 0 9 3 5 6
-3 3 -1 18 5 33 37 97 67 181 63 181 -3 0 -12 -17 -21 -37z"/>
<path d="M5612 3328 c2 -15 10 -23 23 -23 30 0 27 39 -3 43 -20 3 -23 0 -20
-20z"/>
<path d="M5900 3331 c0 -27 19 -36 37 -18 18 18 9 37 -18 37 -12 0 -19 -7 -19
-19z"/>
<path d="M3960 3296 c0 -2 8 -10 18 -17 15 -13 16 -12 3 4 -13 16 -21 21 -21
13z"/>
<path d="M4100 3200 c8 -5 20 -10 25 -10 6 0 3 5 -5 10 -8 5 -19 10 -25 10 -5
0 -3 -5 5 -10z"/>
<path d="M4419 3173 c-13 -16 -12 -17 4 -4 16 13 21 21 13 21 -2 0 -10 -8 -17
-17z"/>
<path d="M4248 3143 c7 -3 16 -2 19 1 4 3 -2 6 -13 5 -11 0 -14 -3 -6 -6z"/>
<path d="M5854 3115 c-4 -8 -17 -15 -30 -15 -16 0 -28 -8 -33 -22 -7 -20 -5
-24 22 -30 46 -9 56 -1 54 43 -1 42 -4 47 -13 24z"/>
<path d="M4319 3063 l-24 -28 28 24 c25 23 32 31 24 31 -2 0 -14 -12 -28 -27z"/>
<path d="M4209 2953 c-13 -16 -12 -17 4 -4 16 13 21 21 13 21 -2 0 -10 -8 -17
-17z"/>
<path d="M7630 2565 l0 -315 50 0 50 0 0 315 0 315 -50 0 -50 0 0 -315z"/>
<path d="M4109 2833 c-13 -16 -12 -17 4 -4 16 13 21 21 13 21 -2 0 -10 -8 -17
-17z"/>
<path d="M7420 2525 l0 -275 50 0 50 0 0 275 0 275 -50 0 -50 0 0 -275z"/>
<path d="M7210 2495 l0 -245 50 0 50 0 0 245 0 245 -50 0 -50 0 0 -245z"/>
<path d="M2402 2605 c-83 -74 -119 -167 -152 -388 -27 -175 -49 -247 -101
-328 -55 -84 -89 -157 -89 -192 0 -15 10 -66 21 -113 28 -111 19 -157 -57
-280 -77 -125 -88 -169 -79 -313 5 -78 3 -132 -5 -161 -14 -57 -101 -241 -110
-235 -4 3 -10 -12 -14 -33 -3 -20 -10 -62 -16 -92 -17 -94 11 -201 68 -263 25
-27 27 -27 151 -27 75 0 147 6 177 14 102 27 200 121 224 213 9 36 7 52 -11
100 -32 90 -42 138 -35 166 3 14 32 63 64 109 63 92 62 87 51 283 -4 67 -2 74
43 165 54 106 88 227 88 304 l-1 51 -40 -45 c-49 -56 -123 -204 -144 -290 -21
-83 -34 -102 -99 -146 -29 -19 -59 -47 -66 -62 -7 -15 -16 -72 -19 -127 -5
-67 -12 -109 -23 -124 -22 -31 -29 -15 -35 82 -5 87 -6 85 63 247 25 60 27 76
28 205 l1 140 41 90 c23 50 45 101 48 115 4 14 13 113 21 221 14 179 18 207
51 304 36 106 37 110 31 224 -3 64 -12 141 -19 171 l-13 54 -43 -39z"/>
<path d="M7010 2425 l0 -175 50 0 50 0 0 175 0 175 -50 0 -50 0 0 -175z"/>
<path d="M3971 2404 c0 -11 3 -14 6 -6 3 7 2 16 -1 19 -3 4 -6 -2 -5 -13z"/>
<path d="M2893 2403 c-7 -2 -13 -12 -13 -21 0 -15 2 -15 10 -2 8 13 10 12 10
-2 0 -10 -7 -18 -15 -18 -8 0 -15 -5 -15 -11 0 -5 4 -8 9 -5 5 3 15 -2 22 -12
13 -16 13 -16 -5 -2 -11 8 -22 15 -25 15 -3 0 -5 8 -4 18 2 14 -1 16 -14 8
-12 -7 -21 -5 -30 7 -11 15 -14 15 -23 2 -5 -8 -10 -10 -10 -5 0 6 -5 2 -11
-8 -5 -9 -7 -22 -4 -27 8 -13 -18 -40 -38 -40 -25 0 -30 -43 -7 -59 22 -15 26
-41 8 -59 -9 -9 -9 -12 0 -13 26 -3 31 -4 38 -11 4 -5 2 -8 -4 -8 -7 0 -12 -5
-12 -12 0 -8 7 -6 18 5 15 16 15 19 2 28 -12 9 -12 10 3 5 10 -3 21 -6 24 -6
3 0 0 -7 -7 -15 -19 -23 0 -38 31 -26 21 8 22 10 6 16 -13 6 -15 11 -6 21 13
15 -8 51 -28 48 -26 -3 -27 -6 -4 -13 14 -4 26 -12 29 -19 2 -8 -5 -7 -24 3
-25 12 -29 12 -40 -3 -8 -9 -14 -12 -14 -5 0 6 13 22 29 36 30 25 26 47 -7 47
-11 0 -12 -3 -3 -14 9 -11 9 -16 0 -22 -7 -4 -9 -3 -5 4 3 6 -6 15 -21 20
l-28 10 25 2 c23 1 23 2 5 10 -18 8 -18 9 -2 9 10 1 20 8 23 16 4 8 11 12 17
8 6 -4 3 -11 -8 -20 -22 -16 -3 -18 28 -2 20 9 20 9 5 -4 -10 -8 -15 -17 -11
-20 11 -12 23 -8 23 7 0 8 16 23 36 35 19 12 32 16 28 10 -4 -7 1 -9 12 -7 11
2 25 -3 32 -12 9 -10 11 -10 6 -1 -4 9 -3 12 4 7 6 -3 13 -2 17 4 3 5 -2 10
-11 10 -26 0 -13 7 23 13 22 4 36 0 45 -11 8 -10 9 -13 1 -9 -6 4 -14 3 -17
-2 -10 -16 11 -22 23 -7 17 20 -6 55 -31 48 -24 -6 -59 25 -51 45 5 12 1 14
-17 8 -15 -5 -20 -4 -16 4 8 12 7 12 -11 4z m-69 -49 c3 -8 2 -12 -4 -9 -6 3
-10 10 -10 16 0 14 7 11 14 -7z m-19 -23 c-6 -5 -25 10 -25 20 0 5 6 4 14 -3
8 -7 12 -15 11 -17z m139 14 c11 -8 15 -15 10 -15 -6 0 -19 7 -30 15 -10 8
-14 14 -9 14 6 0 19 -6 29 -14z m-91 -15 c3 -11 1 -18 -4 -14 -5 3 -9 12 -9
20 0 20 7 17 13 -6z m-26 -32 c-3 -7 -5 -2 -5 12 0 14 2 19 5 13 2 -7 2 -19 0
-25z m-22 11 c11 -17 -1 -21 -15 -4 -8 9 -8 15 -2 15 6 0 14 -5 17 -11z"/>
<path d="M2974 2313 c2 -3 -4 -13 -15 -24 -14 -14 -17 -24 -10 -37 6 -11 6
-24 1 -32 -5 -8 -7 -17 -4 -21 2 -4 -4 -10 -15 -14 -12 -3 -19 -14 -18 -26 1
-10 6 -18 12 -16 5 2 9 13 7 23 -3 18 -3 18 11 -1 9 -11 13 -23 11 -26 -2 -4
5 -14 15 -23 15 -14 18 -14 18 -1 0 8 -4 15 -9 15 -4 0 -8 9 -8 20 0 11 -5 20
-11 20 -5 0 -7 5 -3 11 4 8 9 7 15 -2 7 -11 9 -11 9 1 0 12 2 12 8 2 6 -9 15
-10 33 -3 13 5 18 10 10 10 -11 1 -10 5 5 16 16 13 17 16 4 25 -8 5 -20 8 -27
6 -6 -3 -14 1 -17 9 -3 10 0 12 12 8 14 -5 15 -3 5 8 -19 19 -36 -2 -25 -31 6
-15 11 -19 16 -12 14 23 25 12 14 -13 -9 -21 -13 -23 -20 -11 -4 8 -16 13 -25
12 -10 -2 -12 -1 -5 1 16 6 15 28 -3 46 -12 13 -12 16 7 21 12 3 19 8 15 12
-4 4 -2 12 3 19 7 8 5 12 -5 12 -8 0 -13 -2 -11 -4z"/>
<path d="M3981 2254 c0 -11 3 -14 6 -6 3 7 2 16 -1 19 -3 4 -6 -2 -5 -13z"/>
<path d="M2846 2165 c-3 -9 0 -15 9 -15 9 0 12 6 9 15 -4 8 -7 15 -9 15 -2 0
-5 -7 -9 -15z"/>
<path d="M2873 2150 c-2 -23 10 -26 26 -6 9 11 8 15 -5 20 -8 3 -17 6 -18 6
-1 0 -2 -9 -3 -20z"/>
<path d="M2935 2139 c-4 -6 -13 -8 -21 -5 -7 3 -17 -2 -22 -11 -6 -11 -11 -12
-16 -4 -10 16 -26 14 -26 -3 0 -8 -4 -18 -10 -21 -6 -3 -7 1 -4 9 3 9 1 16 -5
16 -15 0 -14 -23 1 -38 16 -16 21 -15 48 8 12 11 27 17 33 13 6 -3 7 -1 3 5
-4 7 -3 12 2 12 6 0 12 -7 16 -15 6 -16 36 -21 36 -6 0 5 -7 14 -15 21 -8 7
-12 16 -9 21 3 5 3 9 0 9 -3 0 -8 -5 -11 -11z m13 -34 c-3 -3 -9 2 -12 12 -6
14 -5 15 5 6 7 -7 10 -15 7 -18z"/>
<path d="M1401 2113 c2 -24 2 -25 6 -5 2 12 8 22 12 22 9 0 78 -74 99 -106 11
-16 11 -15 1 6 -15 33 -89 110 -106 110 -8 0 -12 -11 -12 -27z"/>
<path d="M1392 2050 c0 -19 2 -27 5 -17 2 9 2 25 0 35 -3 9 -5 1 -5 -18z"/>
<path d="M1383 1940 c0 -36 2 -50 4 -32 2 17 2 47 0 65 -2 17 -4 3 -4 -33z"/>
<path d="M1530 1995 c0 -5 5 -17 10 -25 5 -8 10 -10 10 -5 0 6 -5 17 -10 25
-5 8 -10 11 -10 5z"/>
<path d="M3125 1970 c-10 -11 -16 -22 -14 -24 2 -2 12 7 22 20 22 29 17 32 -8
4z"/>
<path d="M1551 1934 c0 -11 3 -14 6 -6 3 7 2 16 -1 19 -3 4 -6 -2 -5 -13z"/>
<path d="M1561 1894 c0 -11 3 -14 6 -6 3 7 2 16 -1 19 -3 4 -6 -2 -5 -13z"/>
<path d="M1391 1854 c0 -11 3 -14 6 -6 3 7 2 16 -1 19 -3 4 -6 -2 -5 -13z"/>
<path d="M1572 1850 c0 -14 2 -19 5 -12 2 6 2 18 0 25 -3 6 -5 1 -5 -13z"/>
<path d="M3447 1819 c12 -12 24 -21 27 -18 2 2 -8 13 -22 23 l-27 19 22 -24z"/>
<path d="M1400 1825 c0 -5 5 -17 10 -25 5 -8 10 -10 10 -5 0 6 -5 17 -10 25
-5 8 -10 11 -10 5z"/>
<path d="M1582 1800 c0 -14 2 -19 5 -12 2 6 2 18 0 25 -3 6 -5 1 -5 -13z"/>
<path d="M3278 1793 c7 -3 16 -2 19 1 4 3 -2 6 -13 5 -11 0 -14 -3 -6 -6z"/>
<path d="M3318 1783 c7 -3 16 -2 19 1 4 3 -2 6 -13 5 -11 0 -14 -3 -6 -6z"/>
<path d="M1420 1775 c0 -5 5 -17 10 -25 5 -8 10 -10 10 -5 0 6 -5 17 -10 25
-5 8 -10 11 -10 5z"/>
<path d="M1591 1744 c0 -11 3 -14 6 -6 3 7 2 16 -1 19 -3 4 -6 -2 -5 -13z"/>
<path d="M1442 1720 c0 -8 4 -26 8 -40 6 -20 8 -21 8 -5 0 11 -3 29 -8 40 -5
12 -8 14 -8 5z"/>
<path d="M1531 1714 c0 -11 3 -14 6 -6 3 7 2 16 -1 19 -3 4 -6 -2 -5 -13z"/>
<path d="M1601 1704 c0 -11 3 -14 6 -6 3 7 2 16 -1 19 -3 4 -6 -2 -5 -13z"/>
<path d="M1541 1674 c0 -11 3 -14 6 -6 3 7 2 16 -1 19 -3 4 -6 -2 -5 -13z"/>
<path d="M1611 1664 c0 -11 3 -14 6 -6 3 7 2 16 -1 19 -3 4 -6 -2 -5 -13z"/>
<path d="M1463 1605 c0 -22 2 -30 4 -17 2 12 2 30 0 40 -3 9 -5 -1 -4 -23z"/>
<path d="M1551 1624 c0 -11 3 -14 6 -6 3 7 2 16 -1 19 -3 4 -6 -2 -5 -13z"/>
<path d="M1630 1614 c0 -6 7 -19 16 -30 14 -18 14 -18 3 6 -14 31 -19 36 -19
24z"/>
<path d="M1472 1510 c0 -19 2 -27 5 -17 2 9 2 25 0 35 -3 9 -5 1 -5 -18z"/>
<path d="M1581 1525 c0 -5 11 -30 24 -55 13 -25 24 -40 24 -35 0 6 -11 30 -24
55 -13 25 -24 41 -24 35z"/>
<path d="M1708 1486 c15 -24 29 -42 31 -40 4 4 -47 84 -54 84 -2 0 8 -20 23
-44z"/>
<path d="M1482 1425 c0 -16 2 -22 5 -12 2 9 2 23 0 30 -3 6 -5 -1 -5 -18z"/>
<path d="M1491 1374 c0 -11 3 -14 6 -6 3 7 2 16 -1 19 -3 4 -6 -2 -5 -13z"/>
<path d="M1751 1374 c0 -11 3 -14 6 -6 3 7 2 16 -1 19 -3 4 -6 -2 -5 -13z"/>
<path d="M1651 1354 c0 -11 3 -14 6 -6 3 7 2 16 -1 19 -3 4 -6 -2 -5 -13z"/>
<path d="M1741 1324 c0 -11 3 -14 6 -6 3 7 2 16 -1 19 -3 4 -6 -2 -5 -13z"/>
<path d="M1510 1314 c0 -6 7 -19 16 -30 14 -18 14 -18 3 6 -14 31 -19 36 -19
24z"/>
<path d="M1662 1290 c0 -19 2 -27 5 -17 2 9 2 25 0 35 -3 9 -5 1 -5 -18z"/>
<path d="M1731 1274 c0 -11 3 -14 6 -6 3 7 2 16 -1 19 -3 4 -6 -2 -5 -13z"/>
<path d="M1672 1225 c0 -29 35 -180 37 -160 0 6 -8 51 -18 100 -11 50 -20 77
-19 60z"/>
<path d="M1572 1170 c0 -14 2 -19 5 -12 2 6 2 18 0 25 -3 6 -5 1 -5 -13z"/>
<path d="M1740 1166 c0 -11 30 -66 36 -66 2 0 -3 15 -12 33 -19 36 -24 44 -24
33z"/>
<path d="M1815 1036 c10 -14 19 -26 22 -26 7 0 -17 39 -28 46 -6 3 -3 -5 6
-20z"/>
<path d="M1711 1045 c-2 -16 72 -320 76 -310 1 6 -15 80 -36 165 -21 85 -39
151 -40 145z"/>
<path d="M1582 990 c0 -14 2 -19 5 -12 2 6 2 18 0 25 -3 6 -5 1 -5 -13z"/>
<path d="M1862 930 c0 -14 2 -19 5 -12 2 6 2 18 0 25 -3 6 -5 1 -5 -13z"/>
<path d="M1610 901 c0 -6 4 -13 10 -16 6 -3 7 1 4 9 -7 18 -14 21 -14 7z"/>
<path d="M1862 790 c0 -19 2 -27 5 -17 2 9 2 25 0 35 -3 9 -5 1 -5 -18z"/>
<path d="M1871 714 c0 -11 3 -14 6 -6 3 7 2 16 -1 19 -3 4 -6 -2 -5 -13z"/>
<path d="M1791 704 c0 -11 3 -14 6 -6 3 7 2 16 -1 19 -3 4 -6 -2 -5 -13z"/>
<path d="M1662 680 c0 -14 2 -19 5 -12 2 6 2 18 0 25 -3 6 -5 1 -5 -13z"/>
<path d="M1801 664 c0 -11 3 -14 6 -6 3 7 2 16 -1 19 -3 4 -6 -2 -5 -13z"/>
<path d="M1811 624 c0 -11 3 -14 6 -6 3 7 2 16 -1 19 -3 4 -6 -2 -5 -13z"/>
<path d="M1652 610 c0 -14 2 -19 5 -12 2 6 2 18 0 25 -3 6 -5 1 -5 -13z"/>
</g>
</svg>
